<svg width="100" height="100" viewBox="0 0 100 100" fill="none" xmlns="http://www.w3.org/2000/svg">
<circle cx="50" cy="50" r="50" fill="white"/>
<rect x="20" y="22.6909" width="47" height="38.4545" rx="6" stroke="#000F1A" stroke-width="4"/>
<rect x="26" y="15" width="7" height="13" rx="3.5" fill="#000F1A" stroke="white" stroke-width="2"/>
<rect x="53" y="15" width="7" height="13" rx="3.5" fill="#000F1A" stroke="white" stroke-width="2"/>
<rect x="27" y="34" width="7" height="7" fill="#000F1A"/>
<rect x="27" y="45" width="7" height="7" fill="#000F1A"/>
<rect x="39" y="34" width="8" height="7" fill="#000F1A"/>
<path d="M88 42.44V40.44H86H52.0247H48.4559L50.3188 43.484L54.8475 50.884L55.4325 51.84H56.5534H86H88V49.84V42.44Z" fill="#0FF2B2" stroke="white" stroke-width="4"/>
<path d="M88 54.7925V52.7925H86H59.9291H56.3988L58.2136 55.8206L62.7103 63.3238L63.2927 64.2957H64.4258H76.5001V65.4968H62.9883L60.4536 61.2676L60.4536 61.2676L55.9569 53.7644L55.9569 53.7643L49.8879 43.6387L49.8877 43.6384L45.8939 36.9721L44.1786 34.109L42.4627 36.9718L38.4852 43.6084L38.4839 43.6105L38.469 43.6353L38.4679 43.6371L35.6685 48.3066L35.6684 48.3067L24.7813 66.4685L24.7812 66.4687L20.2845 73.9719L18.4697 77H22H52.7641H56.2943L54.4796 73.9719L49.9829 66.4687L49.4005 65.4968H48.2674H38.0185L43.0925 57.0297L43.0925 57.0296L44.1921 55.1949L52.7682 69.5073L52.7683 69.5074L56.6762 76.0281L57.2586 77H58.3917H86H88V75V54.7925Z" fill="#000F1A" stroke="white" stroke-width="4"/>
</svg>
